# xmcd
#
# Track frame offsets: 
#        150
#        13155
#        29945
#        44292
#        59357
#        77900
#        92401
#        106867
#        124024
#        141533
#        156646
#        172811
#        186138
#        206854
#        221774
#
# Disc length: 3109 seconds
#
# Revision: 0
# Processed by: cddbd v1.5.2PL0 Copyright (c) Steve Scherf et al.
# Submitted via: ExactAudioCopyFreeDBPlugin 1.0
#
DISCID=df0c230f
DTITLE=Matt Prater - Small Town Son
DYEAR=2010
DGENRE=Country
TTITLE0=Small Town Son
TTITLE1=Faith and Freedom
TTITLE2=Roots Run Deep
TTITLE3=Hallelujah Alabama
TTITLE4=Fertile Ground
TTITLE5=Ten Years Two Kids
TTITLE6=Southern Outdoors
TTITLE7=Gravel Road
TTITLE8=Mountain Violets
TTITLE9=So Much More
TTITLE10=Ghost Town
TTITLE11=The Ride
TTITLE12=Call Upon His Name
TTITLE13=Come Thou Font
TTITLE14=Dirt
EXTD=
EXTT0=
EXTT1=
EXTT2=
EXTT3=
EXTT4=
EXTT5=
EXTT6=
EXTT7=
EXTT8=
EXTT9=
EXTT10=
EXTT11=
EXTT12=
EXTT13=
EXTT14=
PLAYORDER=
